<svg viewBox="0 0 200 270" xmlns="http://www.w3.org/2000/svg">
<defs>
  <radialGradient id="bg" cx="53%" cy="30%" r="75%">
    <stop offset="0%" stop-color="#162006"/>
    <stop offset="50%" stop-color="#0a1204"/>
    <stop offset="100%" stop-color="#040302"/>
  </radialGradient>
  <radialGradient id="atm" cx="53%" cy="32%" r="42%">
    <stop offset="0%" stop-color="#c04030" stop-opacity="0.38"/>
    <stop offset="100%" stop-color="#c04030" stop-opacity="0"/>
  </radialGradient>
  <radialGradient id="vig" cx="50%" cy="44%" r="65%">
    <stop offset="35%" stop-color="transparent"/>
    <stop offset="100%" stop-color="#020101" stop-opacity="0.55"/>
  </radialGradient>
</defs>
<rect width="200" height="270" fill="url(#bg)"/>
<rect width="200" height="270" fill="url(#atm)"/>
<!-- rune circle behind head, cx=105 cy=82 r=50 -->
<circle cx="105" cy="82" r="53" fill="none" stroke="#c04030" stroke-width="3" stroke-opacity="0.06"/>
<circle cx="105" cy="82" r="50" fill="none" stroke="#c04030" stroke-width="1" stroke-opacity="0.28"/>
<circle cx="105" cy="82" r="43" fill="none" stroke="#c04030" stroke-width="0.5" stroke-opacity="0.15"/>
<line x1="105" y1="33" x2="105" y2="27" stroke="#c04030" stroke-width="1.4" stroke-opacity="0.42"/>
<line x1="140" y1="47" x2="144" y2="43" stroke="#c04030" stroke-width="1.4" stroke-opacity="0.42"/>
<line x1="153" y1="82" x2="159" y2="82" stroke="#c04030" stroke-width="1.4" stroke-opacity="0.42"/>
<line x1="140" y1="117" x2="144" y2="121" stroke="#c04030" stroke-width="1.4" stroke-opacity="0.42"/>
<line x1="105" y1="131" x2="105" y2="137" stroke="#c04030" stroke-width="1.4" stroke-opacity="0.42"/>
<line x1="70" y1="117" x2="66" y2="121" stroke="#c04030" stroke-width="1.4" stroke-opacity="0.42"/>
<line x1="57" y1="82" x2="51" y2="82" stroke="#c04030" stroke-width="1.4" stroke-opacity="0.42"/>
<line x1="70" y1="47" x2="66" y2="43" stroke="#c04030" stroke-width="1.4" stroke-opacity="0.42"/>
<path d="M105 76 L109 82 L105 88 L101 82 Z" fill="none" stroke="#c04030" stroke-width="0.8" stroke-opacity="0.26"/>
<!-- ornate frame -->
<rect x="7" y="7" width="186" height="256" fill="none" stroke="#c04030" stroke-width="2.2" stroke-opacity="0.08"/>
<rect x="9" y="9" width="182" height="252" fill="none" stroke="#c04030" stroke-width="1.2" stroke-opacity="0.40"/>
<rect x="13" y="13" width="174" height="244" fill="none" stroke="#c04030" stroke-width="0.5" stroke-opacity="0.16"/>
<path d="M9 9 L9 30 M9 9 L30 9" stroke="#c04030" stroke-width="2.2" stroke-opacity="0.72" fill="none" stroke-linecap="round"/>
<circle cx="9" cy="9" r="3" fill="#c04030" fill-opacity="0.45"/>
<path d="M191 9 L191 30 M191 9 L170 9" stroke="#c04030" stroke-width="2.2" stroke-opacity="0.72" fill="none" stroke-linecap="round"/>
<circle cx="191" cy="9" r="3" fill="#c04030" fill-opacity="0.45"/>
<path d="M9 261 L9 240 M9 261 L30 261" stroke="#c04030" stroke-width="2.2" stroke-opacity="0.72" fill="none" stroke-linecap="round"/>
<circle cx="9" cy="261" r="3" fill="#c04030" fill-opacity="0.45"/>
<path d="M191 261 L191 240 M191 261 L170 261" stroke="#c04030" stroke-width="2.2" stroke-opacity="0.72" fill="none" stroke-linecap="round"/>
<circle cx="191" cy="261" r="3" fill="#c04030" fill-opacity="0.45"/>
<path d="M100 7 L104 11 L100 15 L96 11 Z" fill="#c04030" fill-opacity="0.45"/>
<path d="M100 255 L104 259 L100 263 L96 259 Z" fill="#c04030" fill-opacity="0.45"/>
<path d="M7 135 L11 139 L7 143 L3 139 Z" fill="#c04030" fill-opacity="0.45"/>
<path d="M193 135 L197 139 L193 143 L189 139 Z" fill="#c04030" fill-opacity="0.45"/>

<!-- short rough hair -->
<path d="M76 46 C72 36 82 26 96 24 C110 22 122 28 126 38 C120 32 108 28 96 30 C84 32 76 40 76 46 Z" fill="#040602"/>
<!-- head oval (wide, heavy) -->
<ellipse cx="102" cy="78" rx="34" ry="38" fill="#040602"/>
<!-- heavy brow ridge -->
<path d="M72 58 C76 50 86 46 96 46 C106 46 116 50 120 56 C114 52 104 50 96 50 C88 50 78 54 72 58 Z" fill="#040602"/>
<!-- flat wide nose -->
<path d="M78 80 C74 86 74 94 78 98 C84 102 90 100 90 94 C88 90 86 84 84 80 Z" fill="#040602"/>
<!-- orcish ear (pointed, large) -->
<polygon points="132,58 148,44 134,76" fill="#040602"/>
<!-- lower jaw protrusion -->
<path d="M74 102 C70 110 72 118 76 122 C82 126 90 124 96 120 Q102 116 108 120 C114 124 122 126 126 122 C130 118 132 110 128 102 Z" fill="#040602"/>
<!-- TUSKS — prominent, clearly visible -->
<polygon points="82,122 78,148 86,148 84,122" fill="#c8c4a8"/>
<polygon points="108,122 106,148 114,148 112,122" fill="#c8c4a8"/>
<!-- neck (thick) -->
<rect x="86" y="118" width="32" height="24" rx="6" fill="#040602"/>
<!-- shoulders (massive, wide) -->
<path d="M22 234 Q26 172 60 156 Q78 148 102 146 Q126 148 142 156 Q174 172 178 234 Z" fill="#040602"/>
<!-- rim light -->
<path d="M72 52 C68 64 68 78 72 88 C74 94 78 100 82 104" fill="none" stroke="#c04030" stroke-width="1.2" stroke-opacity="0.28"/>
<ellipse cx="100" cy="250" rx="86" ry="14" fill="#030201" fill-opacity="0.65"/>
<rect width="200" height="270" fill="url(#vig)"/>
</svg>