<svg viewBox="0 0 200 270" xmlns="http://www.w3.org/2000/svg">
<defs>
  <radialGradient id="bg" cx="53%" cy="30%" r="75%">
    <stop offset="0%" stop-color="#082018"/>
    <stop offset="50%" stop-color="#04100c"/>
    <stop offset="100%" stop-color="#040302"/>
  </radialGradient>
  <radialGradient id="atm" cx="53%" cy="32%" r="42%">
    <stop offset="0%" stop-color="#60c090" stop-opacity="0.38"/>
    <stop offset="100%" stop-color="#60c090" stop-opacity="0"/>
  </radialGradient>
  <radialGradient id="vig" cx="50%" cy="44%" r="65%">
    <stop offset="35%" stop-color="transparent"/>
    <stop offset="100%" stop-color="#020101" stop-opacity="0.55"/>
  </radialGradient>
</defs>
<rect width="200" height="270" fill="url(#bg)"/>
<rect width="200" height="270" fill="url(#atm)"/>
<!-- rune circle behind head, cx=105 cy=82 r=50 -->
<circle cx="105" cy="82" r="53" fill="none" stroke="#60c090" stroke-width="3" stroke-opacity="0.06"/>
<circle cx="105" cy="82" r="50" fill="none" stroke="#60c090" stroke-width="1" stroke-opacity="0.28"/>
<circle cx="105" cy="82" r="43" fill="none" stroke="#60c090" stroke-width="0.5" stroke-opacity="0.15"/>
<line x1="105" y1="33" x2="105" y2="27" stroke="#60c090" stroke-width="1.4" stroke-opacity="0.42"/>
<line x1="140" y1="47" x2="144" y2="43" stroke="#60c090" stroke-width="1.4" stroke-opacity="0.42"/>
<line x1="153" y1="82" x2="159" y2="82" stroke="#60c090" stroke-width="1.4" stroke-opacity="0.42"/>
<line x1="140" y1="117" x2="144" y2="121" stroke="#60c090" stroke-width="1.4" stroke-opacity="0.42"/>
<line x1="105" y1="131" x2="105" y2="137" stroke="#60c090" stroke-width="1.4" stroke-opacity="0.42"/>
<line x1="70" y1="117" x2="66" y2="121" stroke="#60c090" stroke-width="1.4" stroke-opacity="0.42"/>
<line x1="57" y1="82" x2="51" y2="82" stroke="#60c090" stroke-width="1.4" stroke-opacity="0.42"/>
<line x1="70" y1="47" x2="66" y2="43" stroke="#60c090" stroke-width="1.4" stroke-opacity="0.42"/>
<path d="M105 76 L109 82 L105 88 L101 82 Z" fill="none" stroke="#60c090" stroke-width="0.8" stroke-opacity="0.26"/>
<!-- ornate frame -->
<rect x="7" y="7" width="186" height="256" fill="none" stroke="#60c090" stroke-width="2.2" stroke-opacity="0.08"/>
<rect x="9" y="9" width="182" height="252" fill="none" stroke="#60c090" stroke-width="1.2" stroke-opacity="0.40"/>
<rect x="13" y="13" width="174" height="244" fill="none" stroke="#60c090" stroke-width="0.5" stroke-opacity="0.16"/>
<path d="M9 9 L9 30 M9 9 L30 9" stroke="#60c090" stroke-width="2.2" stroke-opacity="0.72" fill="none" stroke-linecap="round"/>
<circle cx="9" cy="9" r="3" fill="#60c090" fill-opacity="0.45"/>
<path d="M191 9 L191 30 M191 9 L170 9" stroke="#60c090" stroke-width="2.2" stroke-opacity="0.72" fill="none" stroke-linecap="round"/>
<circle cx="191" cy="9" r="3" fill="#60c090" fill-opacity="0.45"/>
<path d="M9 261 L9 240 M9 261 L30 261" stroke="#60c090" stroke-width="2.2" stroke-opacity="0.72" fill="none" stroke-linecap="round"/>
<circle cx="9" cy="261" r="3" fill="#60c090" fill-opacity="0.45"/>
<path d="M191 261 L191 240 M191 261 L170 261" stroke="#60c090" stroke-width="2.2" stroke-opacity="0.72" fill="none" stroke-linecap="round"/>
<circle cx="191" cy="261" r="3" fill="#60c090" fill-opacity="0.45"/>
<path d="M100 7 L104 11 L100 15 L96 11 Z" fill="#60c090" fill-opacity="0.45"/>
<path d="M100 255 L104 259 L100 263 L96 259 Z" fill="#60c090" fill-opacity="0.45"/>
<path d="M7 135 L11 139 L7 143 L3 139 Z" fill="#60c090" fill-opacity="0.45"/>
<path d="M193 135 L197 139 L193 143 L189 139 Z" fill="#60c090" fill-opacity="0.45"/>

<!-- no hair — scaled head back -->
<ellipse cx="108" cy="76" rx="34" ry="40" fill="#030a08"/>
<!-- SNOUT extending forward (left) — key feature -->
<path d="M74 80 C60 84 50 92 48 104 C56 100 64 94 70 88 C74 84 76 82 76 80 Z" fill="#030a08"/>
<!-- upper snout -->
<path d="M74 72 C62 70 52 72 46 78 C54 76 64 74 72 74 Z" fill="#030a08"/>
<!-- scale texture marks on head -->
<path d="M84 54 Q90 52 96 54" fill="none" stroke="#60c090" stroke-width="0.8" stroke-opacity="0.25"/>
<path d="M80 64 Q88 62 96 64" fill="none" stroke="#60c090" stroke-width="0.8" stroke-opacity="0.25"/>
<path d="M78 74 Q86 72 94 74" fill="none" stroke="#60c090" stroke-width="0.8" stroke-opacity="0.25"/>
<!-- nostril -->
<circle cx="52" cy="98" r="4" fill="#030a08"/>
<!-- slit eye -->
<path d="M86 66 Q92 63 98 66 Q92 69 86 66 Z" fill="#60c090" fill-opacity="0.25"/>
<!-- neck -->
<rect x="92" y="114" width="30" height="26" rx="7" fill="#030a08"/>
<!-- shoulders -->
<path d="M30 234 Q34 172 68 156 Q84 150 106 148 Q126 150 138 156 Q166 172 170 234 Z" fill="#030a08"/>
<!-- rim light -->
<path d="M68 54 C62 66 62 80 68 92 C72 100 78 108 86 114" fill="none" stroke="#60c090" stroke-width="1.2" stroke-opacity="0.28"/>
<ellipse cx="100" cy="250" rx="86" ry="14" fill="#030201" fill-opacity="0.65"/>
<rect width="200" height="270" fill="url(#vig)"/>
</svg>