<svg viewBox="0 0 200 270" xmlns="http://www.w3.org/2000/svg">
<defs>
  <radialGradient id="bg" cx="53%" cy="30%" r="75%">
    <stop offset="0%" stop-color="#062c38"/>
    <stop offset="50%" stop-color="#021418"/>
    <stop offset="100%" stop-color="#040302"/>
  </radialGradient>
  <radialGradient id="atm" cx="53%" cy="32%" r="42%">
    <stop offset="0%" stop-color="#78d8e0" stop-opacity="0.38"/>
    <stop offset="100%" stop-color="#78d8e0" stop-opacity="0"/>
  </radialGradient>
  <radialGradient id="vig" cx="50%" cy="44%" r="65%">
    <stop offset="35%" stop-color="transparent"/>
    <stop offset="100%" stop-color="#020101" stop-opacity="0.55"/>
  </radialGradient>
</defs>
<rect width="200" height="270" fill="url(#bg)"/>
<rect width="200" height="270" fill="url(#atm)"/>
<!-- rune circle behind head, cx=105 cy=82 r=50 -->
<circle cx="105" cy="82" r="53" fill="none" stroke="#78d8e0" stroke-width="3" stroke-opacity="0.06"/>
<circle cx="105" cy="82" r="50" fill="none" stroke="#78d8e0" stroke-width="1" stroke-opacity="0.28"/>
<circle cx="105" cy="82" r="43" fill="none" stroke="#78d8e0" stroke-width="0.5" stroke-opacity="0.15"/>
<line x1="105" y1="33" x2="105" y2="27" stroke="#78d8e0" stroke-width="1.4" stroke-opacity="0.42"/>
<line x1="140" y1="47" x2="144" y2="43" stroke="#78d8e0" stroke-width="1.4" stroke-opacity="0.42"/>
<line x1="153" y1="82" x2="159" y2="82" stroke="#78d8e0" stroke-width="1.4" stroke-opacity="0.42"/>
<line x1="140" y1="117" x2="144" y2="121" stroke="#78d8e0" stroke-width="1.4" stroke-opacity="0.42"/>
<line x1="105" y1="131" x2="105" y2="137" stroke="#78d8e0" stroke-width="1.4" stroke-opacity="0.42"/>
<line x1="70" y1="117" x2="66" y2="121" stroke="#78d8e0" stroke-width="1.4" stroke-opacity="0.42"/>
<line x1="57" y1="82" x2="51" y2="82" stroke="#78d8e0" stroke-width="1.4" stroke-opacity="0.42"/>
<line x1="70" y1="47" x2="66" y2="43" stroke="#78d8e0" stroke-width="1.4" stroke-opacity="0.42"/>
<path d="M105 76 L109 82 L105 88 L101 82 Z" fill="none" stroke="#78d8e0" stroke-width="0.8" stroke-opacity="0.26"/>
<!-- ornate frame -->
<rect x="7" y="7" width="186" height="256" fill="none" stroke="#78d8e0" stroke-width="2.2" stroke-opacity="0.08"/>
<rect x="9" y="9" width="182" height="252" fill="none" stroke="#78d8e0" stroke-width="1.2" stroke-opacity="0.40"/>
<rect x="13" y="13" width="174" height="244" fill="none" stroke="#78d8e0" stroke-width="0.5" stroke-opacity="0.16"/>
<path d="M9 9 L9 30 M9 9 L30 9" stroke="#78d8e0" stroke-width="2.2" stroke-opacity="0.72" fill="none" stroke-linecap="round"/>
<circle cx="9" cy="9" r="3" fill="#78d8e0" fill-opacity="0.45"/>
<path d="M191 9 L191 30 M191 9 L170 9" stroke="#78d8e0" stroke-width="2.2" stroke-opacity="0.72" fill="none" stroke-linecap="round"/>
<circle cx="191" cy="9" r="3" fill="#78d8e0" fill-opacity="0.45"/>
<path d="M9 261 L9 240 M9 261 L30 261" stroke="#78d8e0" stroke-width="2.2" stroke-opacity="0.72" fill="none" stroke-linecap="round"/>
<circle cx="9" cy="261" r="3" fill="#78d8e0" fill-opacity="0.45"/>
<path d="M191 261 L191 240 M191 261 L170 261" stroke="#78d8e0" stroke-width="2.2" stroke-opacity="0.72" fill="none" stroke-linecap="round"/>
<circle cx="191" cy="261" r="3" fill="#78d8e0" fill-opacity="0.45"/>
<path d="M100 7 L104 11 L100 15 L96 11 Z" fill="#78d8e0" fill-opacity="0.45"/>
<path d="M100 255 L104 259 L100 263 L96 259 Z" fill="#78d8e0" fill-opacity="0.45"/>
<path d="M7 135 L11 139 L7 143 L3 139 Z" fill="#78d8e0" fill-opacity="0.45"/>
<path d="M193 135 L197 139 L193 143 L189 139 Z" fill="#78d8e0" fill-opacity="0.45"/>

<!-- long hair mass -->
<ellipse cx="96" cy="70" rx="38" ry="52" fill="#030a0d"/>
<!-- head oval (slender) -->
<ellipse cx="104" cy="78" rx="26" ry="36" fill="#030a0d"/>
<!-- POINTED EAR — large, clearly visible, extending upper-left -->
<polygon points="78,60 50,38 76,76" fill="#030a0d"/>
<polygon points="78,60 54,42 78,72" fill="#030a0d"/>
<!-- nose (elegant) -->
<path d="M81 82 C78 86 77 90 79 93 C81 95 83 93 83 89" fill="#030a0d"/>
<!-- neck (long) -->
<rect x="92" y="112" width="24" height="30" rx="7" fill="#030a0d"/>
<!-- shoulders (slender) -->
<path d="M38 234 Q42 172 78 156 Q92 150 104 148 Q116 150 122 156 Q158 172 162 234 Z" fill="#030a0d"/>
<!-- rim light -->
<path d="M81 50 C76 62 76 76 80 86 C82 92 86 98 90 102" fill="none" stroke="#78d8e0" stroke-width="1.2" stroke-opacity="0.30"/>
<ellipse cx="100" cy="250" rx="86" ry="14" fill="#030201" fill-opacity="0.65"/>
<rect width="200" height="270" fill="url(#vig)"/>
</svg>