<svg viewBox="0 0 200 270" xmlns="http://www.w3.org/2000/svg">
<defs>
  <radialGradient id="bg" cx="53%" cy="32%" r="75%"><stop offset="0%" stop-color="#0c1c38"/><stop offset="45%" stop-color="#030612"/><stop offset="100%" stop-color="#010308"/></radialGradient>
  <radialGradient id="atm" cx="53%" cy="34%" r="36%"><stop offset="0%" stop-color="#6090e0" stop-opacity="0.35"/><stop offset="100%" stop-color="#6090e0" stop-opacity="0"/></radialGradient>
  <radialGradient id="vig" cx="50%" cy="44%" r="62%"><stop offset="40%" stop-color="transparent"/><stop offset="100%" stop-color="#010208" stop-opacity="0.55"/></radialGradient>
</defs>
<rect width="200" height="270" fill="url(#bg)"/>
<rect width="200" height="270" fill="url(#atm)"/>
<circle cx="107" cy="92" r="48" fill="none" stroke="#6090e0" stroke-width="3" stroke-opacity="0.05"/>
<circle cx="107" cy="92" r="45" fill="none" stroke="#6090e0" stroke-width="0.9" stroke-opacity="0.24"/>
<circle cx="107" cy="92" r="38" fill="none" stroke="#6090e0" stroke-width="0.45" stroke-opacity="0.13"/>
<line x1="107" y1="48" x2="107" y2="42" stroke="#6090e0" stroke-width="1.2" stroke-opacity="0.38"/>
<line x1="137" y1="60" x2="141" y2="56" stroke="#6090e0" stroke-width="1.2" stroke-opacity="0.38"/>
<line x1="149" y1="92" x2="155" y2="92" stroke="#6090e0" stroke-width="1.2" stroke-opacity="0.38"/>
<line x1="137" y1="124" x2="141" y2="128" stroke="#6090e0" stroke-width="1.2" stroke-opacity="0.38"/>
<line x1="107" y1="136" x2="107" y2="142" stroke="#6090e0" stroke-width="1.2" stroke-opacity="0.38"/>
<line x1="77" y1="124" x2="73" y2="128" stroke="#6090e0" stroke-width="1.2" stroke-opacity="0.38"/>
<line x1="65" y1="92" x2="59" y2="92" stroke="#6090e0" stroke-width="1.2" stroke-opacity="0.38"/>
<line x1="77" y1="60" x2="73" y2="56" stroke="#6090e0" stroke-width="1.2" stroke-opacity="0.38"/>
<path d="M107 86 L110 92 L107 98 L104 92 Z" fill="none" stroke="#6090e0" stroke-width="0.7" stroke-opacity="0.22"/>
<!-- wild hair spikes -->
<path d="M107 52 C106 46 112 38 118 32 C120 40 116 48 114 54 Z" fill="#03040e"/>
<path d="M100 50 C96 44 96 34 100 28 C104 34 104 46 102 52 Z" fill="#03040e"/>
<path d="M95 52 C89 46 84 38 80 30 C84 38 86 48 88 54 Z" fill="#03040e"/>
<path d="M108 54 C96 48 84 50 78 58 C72 66 72 78 74 90 C76 100 80 108 84 114 C78 112 70 104 66 90 C62 76 64 62 72 52 C80 42 96 40 106 46 Z" fill="#03040e"/>
<path d="M108 54 C98 54 90 59 86 68 C82 76 82 88 86 96 C88 102 92 108 97 112 C100 114 104 114 108 112 C112 110 116 106 118 100 C120 92 120 82 118 72 C115 62 112 56 108 54 Z" fill="#03040e"/>
<path d="M116 70 C122 68 124 72 124 80 C124 84 122 86 120 84 C116 82 116 72 116 70 Z" fill="#03040e"/>
<path d="M88 74 C90 70 94 68 98 68 C100 68 102 70 102 72" fill="none" stroke="#6090e0" stroke-width="0.6" stroke-opacity="0.22"/>
<path d="M86 82 C84 85 83 88 84 91 C86 93 88 91 88 88" fill="#03040e"/>
<path d="M90 114 C88 122 88 130 90 136 C92 140 96 142 102 142 C108 142 112 140 114 136 C116 130 116 122 114 114 C110 112 106 112 102 112 C98 112 94 112 90 114 Z" fill="#03040e"/>
<path d="M48 232 C46 200 58 174 80 160 C88 156 94 154 102 152 C112 154 124 158 134 164 C156 176 164 202 162 232 Z" fill="#03040e"/>
<path d="M46 256 L48 232 L162 232 L166 256 Z" fill="#03040e"/>
<path d="M86 68 C82 76 82 88 86 96 C88 102 92 108 97 112" fill="none" stroke="#6090e0" stroke-width="0.8" stroke-opacity="0.20"/>
<path d="M48 232 C46 200 58 174 80 160" fill="none" stroke="#6090e0" stroke-width="0.5" stroke-opacity="0.13"/>
<ellipse cx="100" cy="248" rx="88" ry="18" fill="#03040e" fill-opacity="0.70"/>
<rect x="7" y="7" width="186" height="256" fill="none" stroke="#6090e0" stroke-width="2" stroke-opacity="0.07"/>
<rect x="9" y="9" width="182" height="252" fill="none" stroke="#6090e0" stroke-width="1.1" stroke-opacity="0.38"/>
<rect x="13" y="13" width="174" height="244" fill="none" stroke="#6090e0" stroke-width="0.4" stroke-opacity="0.15"/>
<path d="M9 9 L9 28 M9 9 L28 9" stroke="#6090e0" stroke-width="2" stroke-opacity="0.68" fill="none" stroke-linecap="round"/>
<circle cx="9" cy="9" r="2.8" fill="#6090e0" fill-opacity="0.40"/>
<path d="M191 9 L191 28 M191 9 L172 9" stroke="#6090e0" stroke-width="2" stroke-opacity="0.68" fill="none" stroke-linecap="round"/>
<circle cx="191" cy="9" r="2.8" fill="#6090e0" fill-opacity="0.40"/>
<path d="M9 261 L9 242 M9 261 L28 261" stroke="#6090e0" stroke-width="2" stroke-opacity="0.68" fill="none" stroke-linecap="round"/>
<circle cx="9" cy="261" r="2.8" fill="#6090e0" fill-opacity="0.40"/>
<path d="M191 261 L191 242 M191 261 L172 261" stroke="#6090e0" stroke-width="2" stroke-opacity="0.68" fill="none" stroke-linecap="round"/>
<circle cx="191" cy="261" r="2.8" fill="#6090e0" fill-opacity="0.40"/>
<path d="M100 7 L103 10 L100 13 L97 10 Z" fill="#6090e0" fill-opacity="0.42"/>
<path d="M100 257 L103 260 L100 263 L97 260 Z" fill="#6090e0" fill-opacity="0.42"/>
<path d="M7 135 L10 138 L7 141 L4 138 Z" fill="#6090e0" fill-opacity="0.42"/>
<path d="M193 135 L196 138 L193 141 L190 138 Z" fill="#6090e0" fill-opacity="0.42"/>
<rect width="200" height="270" fill="url(#vig)"/>
</svg>
