<svg viewBox="0 0 200 270" xmlns="http://www.w3.org/2000/svg">
<defs>
  <radialGradient id="bg" cx="53%" cy="30%" r="75%">
    <stop offset="0%" stop-color="#1e1208"/>
    <stop offset="50%" stop-color="#100a04"/>
    <stop offset="100%" stop-color="#040302"/>
  </radialGradient>
  <radialGradient id="atm" cx="53%" cy="32%" r="42%">
    <stop offset="0%" stop-color="#c89828" stop-opacity="0.38"/>
    <stop offset="100%" stop-color="#c89828" stop-opacity="0"/>
  </radialGradient>
  <radialGradient id="vig" cx="50%" cy="44%" r="65%">
    <stop offset="35%" stop-color="transparent"/>
    <stop offset="100%" stop-color="#020101" stop-opacity="0.55"/>
  </radialGradient>
</defs>
<rect width="200" height="270" fill="url(#bg)"/>
<rect width="200" height="270" fill="url(#atm)"/>
<!-- rune circle behind head, cx=105 cy=82 r=50 -->
<circle cx="105" cy="82" r="53" fill="none" stroke="#c89828" stroke-width="3" stroke-opacity="0.06"/>
<circle cx="105" cy="82" r="50" fill="none" stroke="#c89828" stroke-width="1" stroke-opacity="0.28"/>
<circle cx="105" cy="82" r="43" fill="none" stroke="#c89828" stroke-width="0.5" stroke-opacity="0.15"/>
<line x1="105" y1="33" x2="105" y2="27" stroke="#c89828" stroke-width="1.4" stroke-opacity="0.42"/>
<line x1="140" y1="47" x2="144" y2="43" stroke="#c89828" stroke-width="1.4" stroke-opacity="0.42"/>
<line x1="153" y1="82" x2="159" y2="82" stroke="#c89828" stroke-width="1.4" stroke-opacity="0.42"/>
<line x1="140" y1="117" x2="144" y2="121" stroke="#c89828" stroke-width="1.4" stroke-opacity="0.42"/>
<line x1="105" y1="131" x2="105" y2="137" stroke="#c89828" stroke-width="1.4" stroke-opacity="0.42"/>
<line x1="70" y1="117" x2="66" y2="121" stroke="#c89828" stroke-width="1.4" stroke-opacity="0.42"/>
<line x1="57" y1="82" x2="51" y2="82" stroke="#c89828" stroke-width="1.4" stroke-opacity="0.42"/>
<line x1="70" y1="47" x2="66" y2="43" stroke="#c89828" stroke-width="1.4" stroke-opacity="0.42"/>
<path d="M105 76 L109 82 L105 88 L101 82 Z" fill="none" stroke="#c89828" stroke-width="0.8" stroke-opacity="0.26"/>
<!-- ornate frame -->
<rect x="7" y="7" width="186" height="256" fill="none" stroke="#c89828" stroke-width="2.2" stroke-opacity="0.08"/>
<rect x="9" y="9" width="182" height="252" fill="none" stroke="#c89828" stroke-width="1.2" stroke-opacity="0.40"/>
<rect x="13" y="13" width="174" height="244" fill="none" stroke="#c89828" stroke-width="0.5" stroke-opacity="0.16"/>
<path d="M9 9 L9 30 M9 9 L30 9" stroke="#c89828" stroke-width="2.2" stroke-opacity="0.72" fill="none" stroke-linecap="round"/>
<circle cx="9" cy="9" r="3" fill="#c89828" fill-opacity="0.45"/>
<path d="M191 9 L191 30 M191 9 L170 9" stroke="#c89828" stroke-width="2.2" stroke-opacity="0.72" fill="none" stroke-linecap="round"/>
<circle cx="191" cy="9" r="3" fill="#c89828" fill-opacity="0.45"/>
<path d="M9 261 L9 240 M9 261 L30 261" stroke="#c89828" stroke-width="2.2" stroke-opacity="0.72" fill="none" stroke-linecap="round"/>
<circle cx="9" cy="261" r="3" fill="#c89828" fill-opacity="0.45"/>
<path d="M191 261 L191 240 M191 261 L170 261" stroke="#c89828" stroke-width="2.2" stroke-opacity="0.72" fill="none" stroke-linecap="round"/>
<circle cx="191" cy="261" r="3" fill="#c89828" fill-opacity="0.45"/>
<path d="M100 7 L104 11 L100 15 L96 11 Z" fill="#c89828" fill-opacity="0.45"/>
<path d="M100 255 L104 259 L100 263 L96 259 Z" fill="#c89828" fill-opacity="0.45"/>
<path d="M7 135 L11 139 L7 143 L3 139 Z" fill="#c89828" fill-opacity="0.45"/>
<path d="M193 135 L197 139 L193 143 L189 139 Z" fill="#c89828" fill-opacity="0.45"/>

<!-- hood left side -->
<path d="M62 56 C54 66 50 82 52 100 C54 114 60 124 66 130 C56 122 46 108 44 92 C42 74 48 56 58 46 Z" fill="#050402"/>
<!-- hood right side -->
<path d="M142 52 C150 62 154 78 152 96 C150 110 144 122 138 130 C148 120 158 106 160 90 C162 72 156 54 146 44 Z" fill="#050402"/>
<!-- hood top arc -->
<path d="M80 34 C88 26 112 26 120 34 C128 40 130 50 128 56 C120 46 112 40 102 38 C92 40 80 46 72 56 C70 50 72 40 80 34 Z" fill="#050402"/>
<!-- face in shadow (partially obscured) -->
<ellipse cx="102" cy="82" rx="24" ry="28" fill="#050402"/>
<!-- glowing eyes hinting at mystery -->
<ellipse cx="93" cy="76" rx="4" ry="2.5" fill="#c89828" fill-opacity="0.18"/>
<ellipse cx="111" cy="76" rx="4" ry="2.5" fill="#c89828" fill-opacity="0.14"/>
<!-- cloak shoulders (wide, flowing) -->
<path d="M26 234 Q24 188 56 162 Q76 148 102 144 Q128 148 146 162 Q174 188 174 234 Z" fill="#050402"/>
<!-- cloak fold lines -->
<path d="M62 130 C56 160 48 196 44 228" fill="none" stroke="#0c0a06" stroke-width="4" stroke-opacity="0.5"/>
<path d="M142 130 C148 160 154 196 158 228" fill="none" stroke="#0c0a06" stroke-width="4" stroke-opacity="0.5"/>
<!-- rim light on hood edge -->
<path d="M62 56 C54 66 50 82 52 100 C54 114 60 124 66 130" fill="none" stroke="#c89828" stroke-width="1.2" stroke-opacity="0.24"/>
<ellipse cx="100" cy="250" rx="86" ry="14" fill="#030201" fill-opacity="0.65"/>
<rect width="200" height="270" fill="url(#vig)"/>
</svg>