<svg viewBox="0 0 200 270" xmlns="http://www.w3.org/2000/svg">
<defs>
  <radialGradient id="bg" cx="53%" cy="30%" r="75%">
    <stop offset="0%" stop-color="#221408"/>
    <stop offset="50%" stop-color="#120904"/>
    <stop offset="100%" stop-color="#040302"/>
  </radialGradient>
  <radialGradient id="atm" cx="53%" cy="32%" r="42%">
    <stop offset="0%" stop-color="#d08840" stop-opacity="0.38"/>
    <stop offset="100%" stop-color="#d08840" stop-opacity="0"/>
  </radialGradient>
  <radialGradient id="vig" cx="50%" cy="44%" r="65%">
    <stop offset="35%" stop-color="transparent"/>
    <stop offset="100%" stop-color="#020101" stop-opacity="0.55"/>
  </radialGradient>
</defs>
<rect width="200" height="270" fill="url(#bg)"/>
<rect width="200" height="270" fill="url(#atm)"/>
<!-- rune circle behind head, cx=105 cy=82 r=50 -->
<circle cx="105" cy="82" r="53" fill="none" stroke="#d08840" stroke-width="3" stroke-opacity="0.06"/>
<circle cx="105" cy="82" r="50" fill="none" stroke="#d08840" stroke-width="1" stroke-opacity="0.28"/>
<circle cx="105" cy="82" r="43" fill="none" stroke="#d08840" stroke-width="0.5" stroke-opacity="0.15"/>
<line x1="105" y1="33" x2="105" y2="27" stroke="#d08840" stroke-width="1.4" stroke-opacity="0.42"/>
<line x1="140" y1="47" x2="144" y2="43" stroke="#d08840" stroke-width="1.4" stroke-opacity="0.42"/>
<line x1="153" y1="82" x2="159" y2="82" stroke="#d08840" stroke-width="1.4" stroke-opacity="0.42"/>
<line x1="140" y1="117" x2="144" y2="121" stroke="#d08840" stroke-width="1.4" stroke-opacity="0.42"/>
<line x1="105" y1="131" x2="105" y2="137" stroke="#d08840" stroke-width="1.4" stroke-opacity="0.42"/>
<line x1="70" y1="117" x2="66" y2="121" stroke="#d08840" stroke-width="1.4" stroke-opacity="0.42"/>
<line x1="57" y1="82" x2="51" y2="82" stroke="#d08840" stroke-width="1.4" stroke-opacity="0.42"/>
<line x1="70" y1="47" x2="66" y2="43" stroke="#d08840" stroke-width="1.4" stroke-opacity="0.42"/>
<path d="M105 76 L109 82 L105 88 L101 82 Z" fill="none" stroke="#d08840" stroke-width="0.8" stroke-opacity="0.26"/>
<!-- ornate frame -->
<rect x="7" y="7" width="186" height="256" fill="none" stroke="#d08840" stroke-width="2.2" stroke-opacity="0.08"/>
<rect x="9" y="9" width="182" height="252" fill="none" stroke="#d08840" stroke-width="1.2" stroke-opacity="0.40"/>
<rect x="13" y="13" width="174" height="244" fill="none" stroke="#d08840" stroke-width="0.5" stroke-opacity="0.16"/>
<path d="M9 9 L9 30 M9 9 L30 9" stroke="#d08840" stroke-width="2.2" stroke-opacity="0.72" fill="none" stroke-linecap="round"/>
<circle cx="9" cy="9" r="3" fill="#d08840" fill-opacity="0.45"/>
<path d="M191 9 L191 30 M191 9 L170 9" stroke="#d08840" stroke-width="2.2" stroke-opacity="0.72" fill="none" stroke-linecap="round"/>
<circle cx="191" cy="9" r="3" fill="#d08840" fill-opacity="0.45"/>
<path d="M9 261 L9 240 M9 261 L30 261" stroke="#d08840" stroke-width="2.2" stroke-opacity="0.72" fill="none" stroke-linecap="round"/>
<circle cx="9" cy="261" r="3" fill="#d08840" fill-opacity="0.45"/>
<path d="M191 261 L191 240 M191 261 L170 261" stroke="#d08840" stroke-width="2.2" stroke-opacity="0.72" fill="none" stroke-linecap="round"/>
<circle cx="191" cy="261" r="3" fill="#d08840" fill-opacity="0.45"/>
<path d="M100 7 L104 11 L100 15 L96 11 Z" fill="#d08840" fill-opacity="0.45"/>
<path d="M100 255 L104 259 L100 263 L96 259 Z" fill="#d08840" fill-opacity="0.45"/>
<path d="M7 135 L11 139 L7 143 L3 139 Z" fill="#d08840" fill-opacity="0.45"/>
<path d="M193 135 L197 139 L193 143 L189 139 Z" fill="#d08840" fill-opacity="0.45"/>

<!-- hair (short, sides) -->
<path d="M74 44 C68 38 72 28 86 26 C100 24 116 28 120 38 C116 32 100 30 86 32 C76 34 72 40 74 44 Z" fill="#060402"/>
<!-- head oval (wide) -->
<ellipse cx="103" cy="76" rx="32" ry="36" fill="#060402"/>
<!-- ear -->
<ellipse cx="133" cy="76" rx="7" ry="10" fill="#060402"/>
<!-- MASSIVE BEARD — clearly visible large shape -->
<ellipse cx="102" cy="156" rx="38" ry="52" fill="#060402"/>
<!-- beard braid lines -->
<line x1="90" y1="116" x2="86" y2="196" stroke="#0e0804" stroke-width="3.5" stroke-opacity="0.55"/>
<line x1="102" y1="114" x2="102" y2="198" stroke="#0e0804" stroke-width="3.5" stroke-opacity="0.55"/>
<line x1="114" y1="116" x2="118" y2="196" stroke="#0e0804" stroke-width="3.5" stroke-opacity="0.55"/>
<!-- neck (hidden by beard) -->
<rect x="89" y="110" width="28" height="20" rx="6" fill="#060402"/>
<!-- shoulders (wide) -->
<path d="M26 234 Q30 176 66 160 Q82 152 102 150 Q122 152 136 160 Q170 176 174 234 Z" fill="#060402"/>
<!-- rim light -->
<path d="M73 50 C68 62 68 74 72 84 C74 90 78 96 82 100" fill="none" stroke="#d08840" stroke-width="1.2" stroke-opacity="0.28"/>
<ellipse cx="100" cy="250" rx="86" ry="14" fill="#030201" fill-opacity="0.65"/>
<rect width="200" height="270" fill="url(#vig)"/>
</svg>