<svg viewBox="0 0 200 270" xmlns="http://www.w3.org/2000/svg">
<defs>
  <radialGradient id="bg" cx="53%" cy="30%" r="75%">
    <stop offset="0%" stop-color="#220408"/>
    <stop offset="50%" stop-color="#120204"/>
    <stop offset="100%" stop-color="#040302"/>
  </radialGradient>
  <radialGradient id="atm" cx="53%" cy="32%" r="42%">
    <stop offset="0%" stop-color="#d03068" stop-opacity="0.38"/>
    <stop offset="100%" stop-color="#d03068" stop-opacity="0"/>
  </radialGradient>
  <radialGradient id="vig" cx="50%" cy="44%" r="65%">
    <stop offset="35%" stop-color="transparent"/>
    <stop offset="100%" stop-color="#020101" stop-opacity="0.55"/>
  </radialGradient>
</defs>
<rect width="200" height="270" fill="url(#bg)"/>
<rect width="200" height="270" fill="url(#atm)"/>
<!-- rune circle behind head, cx=105 cy=82 r=50 -->
<circle cx="105" cy="82" r="53" fill="none" stroke="#d03068" stroke-width="3" stroke-opacity="0.06"/>
<circle cx="105" cy="82" r="50" fill="none" stroke="#d03068" stroke-width="1" stroke-opacity="0.28"/>
<circle cx="105" cy="82" r="43" fill="none" stroke="#d03068" stroke-width="0.5" stroke-opacity="0.15"/>
<line x1="105" y1="33" x2="105" y2="27" stroke="#d03068" stroke-width="1.4" stroke-opacity="0.42"/>
<line x1="140" y1="47" x2="144" y2="43" stroke="#d03068" stroke-width="1.4" stroke-opacity="0.42"/>
<line x1="153" y1="82" x2="159" y2="82" stroke="#d03068" stroke-width="1.4" stroke-opacity="0.42"/>
<line x1="140" y1="117" x2="144" y2="121" stroke="#d03068" stroke-width="1.4" stroke-opacity="0.42"/>
<line x1="105" y1="131" x2="105" y2="137" stroke="#d03068" stroke-width="1.4" stroke-opacity="0.42"/>
<line x1="70" y1="117" x2="66" y2="121" stroke="#d03068" stroke-width="1.4" stroke-opacity="0.42"/>
<line x1="57" y1="82" x2="51" y2="82" stroke="#d03068" stroke-width="1.4" stroke-opacity="0.42"/>
<line x1="70" y1="47" x2="66" y2="43" stroke="#d03068" stroke-width="1.4" stroke-opacity="0.42"/>
<path d="M105 76 L109 82 L105 88 L101 82 Z" fill="none" stroke="#d03068" stroke-width="0.8" stroke-opacity="0.26"/>
<!-- ornate frame -->
<rect x="7" y="7" width="186" height="256" fill="none" stroke="#d03068" stroke-width="2.2" stroke-opacity="0.08"/>
<rect x="9" y="9" width="182" height="252" fill="none" stroke="#d03068" stroke-width="1.2" stroke-opacity="0.40"/>
<rect x="13" y="13" width="174" height="244" fill="none" stroke="#d03068" stroke-width="0.5" stroke-opacity="0.16"/>
<path d="M9 9 L9 30 M9 9 L30 9" stroke="#d03068" stroke-width="2.2" stroke-opacity="0.72" fill="none" stroke-linecap="round"/>
<circle cx="9" cy="9" r="3" fill="#d03068" fill-opacity="0.45"/>
<path d="M191 9 L191 30 M191 9 L170 9" stroke="#d03068" stroke-width="2.2" stroke-opacity="0.72" fill="none" stroke-linecap="round"/>
<circle cx="191" cy="9" r="3" fill="#d03068" fill-opacity="0.45"/>
<path d="M9 261 L9 240 M9 261 L30 261" stroke="#d03068" stroke-width="2.2" stroke-opacity="0.72" fill="none" stroke-linecap="round"/>
<circle cx="9" cy="261" r="3" fill="#d03068" fill-opacity="0.45"/>
<path d="M191 261 L191 240 M191 261 L170 261" stroke="#d03068" stroke-width="2.2" stroke-opacity="0.72" fill="none" stroke-linecap="round"/>
<circle cx="191" cy="261" r="3" fill="#d03068" fill-opacity="0.45"/>
<path d="M100 7 L104 11 L100 15 L96 11 Z" fill="#d03068" fill-opacity="0.45"/>
<path d="M100 255 L104 259 L100 263 L96 259 Z" fill="#d03068" fill-opacity="0.45"/>
<path d="M7 135 L11 139 L7 143 L3 139 Z" fill="#d03068" fill-opacity="0.45"/>
<path d="M193 135 L197 139 L193 143 L189 139 Z" fill="#d03068" fill-opacity="0.45"/>

<!-- dark hair mass -->
<ellipse cx="100" cy="76" rx="34" ry="46" fill="#080104"/>
<!-- CURVED HORN — large, unmistakable -->
<path d="M88 44 C82 30 72 16 64 8 C68 18 72 30 78 40 C80 44 84 46 88 44 Z" fill="#080104"/>
<!-- second horn (smaller) -->
<path d="M96 40 C92 28 88 16 86 8 C90 18 94 30 96 38 Z" fill="#080104"/>
<!-- head oval -->
<ellipse cx="104" cy="80" rx="28" ry="34" fill="#080104"/>
<!-- ear -->
<ellipse cx="130" cy="80" rx="7" ry="10" fill="#080104"/>
<!-- glowing eyes -->
<ellipse cx="94" cy="76" rx="4" ry="2.5" fill="#ff4080" fill-opacity="0.20"/>
<!-- nose -->
<path d="M81 84 C78 88 77 92 79 95 C81 97 83 95 83 91" fill="#080104"/>
<!-- neck -->
<rect x="91" y="112" width="26" height="26" rx="7" fill="#080104"/>
<!-- shoulders -->
<path d="M34 234 Q38 172 76 156 Q90 150 104 148 Q118 150 124 156 Q162 172 166 234 Z" fill="#080104"/>
<!-- rim light -->
<path d="M79 54 C74 64 74 76 78 86 C80 92 84 98 88 102" fill="none" stroke="#d03068" stroke-width="1.2" stroke-opacity="0.28"/>
<ellipse cx="100" cy="250" rx="86" ry="14" fill="#030201" fill-opacity="0.65"/>
<rect width="200" height="270" fill="url(#vig)"/>
</svg>