<svg viewBox="0 0 200 270" xmlns="http://www.w3.org/2000/svg">
<defs>
  <radialGradient id="bg" cx="50%" cy="36%" r="70%">
    <stop offset="0%" stop-color="#142806"/>
    <stop offset="52%" stop-color="#0a1604"/>
    <stop offset="100%" stop-color="#060402"/>
  </radialGradient>
  <radialGradient id="atm" cx="50%" cy="34%" r="50%">
    <stop offset="0%" stop-color="#88c030" stop-opacity="0.44"/>
    <stop offset="100%" stop-color="#88c030" stop-opacity="0"/>
  </radialGradient>
  <radialGradient id="vign" cx="50%" cy="46%" r="66%">
    <stop offset="28%" stop-color="transparent"/>
    <stop offset="100%" stop-color="#030201" stop-opacity="0.60"/>
  </radialGradient>
  <filter id="grain">
    <feTurbulence type="fractalNoise" baseFrequency="0.68" numOctaves="3" stitchTiles="stitch" result="n"/>
    <feColorMatrix type="saturate" values="0" in="n" result="g"/>
    <feBlend in="SourceGraphic" in2="g" mode="multiply"/>
  </filter>
</defs>
<rect width="200" height="270" fill="url(#bg)"/>
<rect width="200" height="270" fill="url(#atm)"/>
<rect width="200" height="270" fill="url(#bg)" filter="url(#grain)" opacity="0.20"/>

<circle cx="100" cy="96" r="52" fill="none" stroke="#88c030" stroke-width="0.5" stroke-opacity="0.14"/>
<circle cx="100" cy="96" r="46" fill="none" stroke="#88c030" stroke-width="0.9" stroke-opacity="0.22"/>
<circle cx="100" cy="96" r="38" fill="none" stroke="#88c030" stroke-width="0.4" stroke-opacity="0.14"/>
<path d="M100 46 L104 86 L100 96 L96 86 Z" fill="#88c030" fill-opacity="0.22"/>
<path d="M100 146 L104 106 L100 96 L96 106 Z" fill="#88c030" fill-opacity="0.22"/>
<path d="M50 96 L90 100 L100 96 L90 92 Z" fill="#88c030" fill-opacity="0.22"/>
<path d="M150 96 L110 100 L100 96 L110 92 Z" fill="#88c030" fill-opacity="0.22"/>
<path d="M130 66 L108 92 L100 96 L104 88 Z" fill="#88c030" fill-opacity="0.14"/>
<path d="M130 126 L108 100 L100 96 L104 104 Z" fill="#88c030" fill-opacity="0.14"/>
<path d="M70 126 L92 100 L100 96 L96 104 Z" fill="#88c030" fill-opacity="0.14"/>
<path d="M70 66 L92 92 L100 96 L96 88 Z" fill="#88c030" fill-opacity="0.14"/>

<path d="M68 90 C66 68 70 52 76 46 C74 40 78 36 84 38 C88 34 92 32 98 32 C102 30 106 32 110 34 C116 34 120 38 122 44 C126 52 130 68 130 90" fill="#050403"/>
<ellipse cx="68" cy="90" rx="8" ry="11" fill="#050403"/>
<ellipse cx="132" cy="90" rx="8" ry="11" fill="#050403"/>
<ellipse cx="100" cy="86" rx="32" ry="40" fill="#050403"/>
<rect x="86" y="124" width="28" height="18" rx="5" fill="#050403"/>
<path d="M72 144 Q80 128 88 124 L112 124 Q120 128 128 144 Z" fill="#050403"/>
<circle cx="100" cy="152" r="5" fill="none" stroke="#c8a820" stroke-width="1.0" stroke-opacity="0.40"/>
<circle cx="100" cy="152" r="2" fill="#c8a820" fill-opacity="0.30"/>
<path d="M18 234 Q22 168 64 148 Q80 140 100 138 Q120 140 136 148 Q178 168 182 234 Z" fill="#050403"/>
<ellipse cx="100" cy="252" rx="84" ry="12" fill="#030201" fill-opacity="0.62"/>

<rect x="7" y="7" width="186" height="256" fill="none" stroke="#88c030" stroke-width="1.3" stroke-opacity="0.44"/>
<rect x="11" y="11" width="178" height="248" fill="none" stroke="#88c030" stroke-width="0.5" stroke-opacity="0.18"/>
<path d="M 23 263 L 23 85 Q 23 19 100 19 Q 177 19 177 85 L 177 263" fill="none" stroke="#88c030" stroke-width="0.9" stroke-opacity="0.38"/>
<path d="M 27 263 L 27 87 Q 27 27 100 27 Q 173 27 173 87 L 173 263" fill="none" stroke="#88c030" stroke-width="0.4" stroke-opacity="0.18"/>
<line x1="34" y1="244" x2="166" y2="244" stroke="#88c030" stroke-width="0.7" stroke-opacity="0.40"/>
<line x1="44" y1="247" x2="156" y2="247" stroke="#88c030" stroke-width="0.3" stroke-opacity="0.22"/>
<path d="M100 243 L102 245 L100 247 L98 245 Z" fill="#88c030" fill-opacity="0.60"/>
<path d="M9 4 L11.1 6.9 L14 9 L11.1 11.1 L9 14 L6.9 11.1 L4 9 L6.9 6.9 Z" fill="#88c030" fill-opacity="0.7"/> <path d="M191 4 L193.1 6.9 L196 9 L193.1 11.1 L191 14 L188.9 11.1 L186 9 L188.9 6.9 Z" fill="#88c030" fill-opacity="0.7"/> <path d="M9 256 L11.1 258.9 L14 261 L11.1 263.1 L9 266 L6.9 263.1 L4 261 L6.9 258.9 Z" fill="#88c030" fill-opacity="0.7"/> <path d="M191 256 L193.1 258.9 L196 261 L193.1 263.1 L191 266 L188.9 263.1 L186 261 L188.9 258.9 Z" fill="#88c030" fill-opacity="0.7"/>
<path d="M100 3 L101.7 5.3 L104 7 L101.7 8.7 L100 11 L98.3 8.7 L96 7 L98.3 5.3 Z" fill="#88c030" fill-opacity="0.55"/> <path d="M100 259 L101.7 261.3 L104 263 L101.7 264.7 L100 267 L98.3 264.7 L96 263 L98.3 261.3 Z" fill="#88c030" fill-opacity="0.55"/>
<path d="M7 131 L8.7 133.3 L11 135 L8.7 136.7 L7 139 L5.3 136.7 L3 135 L5.3 133.3 Z" fill="#88c030" fill-opacity="0.55"/> <path d="M193 131 L194.7 133.3 L197 135 L194.7 136.7 L193 139 L191.3 136.7 L189 135 L191.3 133.3 Z" fill="#88c030" fill-opacity="0.55"/>
<text x="100" y="258" text-anchor="middle" font-family="Georgia,serif" font-size="9" letter-spacing="3.5" fill="#88c030" fill-opacity="0.82">HALFLING</text>
<text x="100" y="267" text-anchor="middle" font-family="Georgia,serif" font-size="5.5" letter-spacing="2.0" fill="#88c030" fill-opacity="0.46">PLACEHOLDER PORTRAIT</text>
<rect width="200" height="270" fill="url(#vign)"/>
</svg>