<svg viewBox="0 0 200 270" xmlns="http://www.w3.org/2000/svg">
<defs>
  <radialGradient id="bg" cx="53%" cy="28%" r="75%"><stop offset="0%" stop-color="#0c2820"/><stop offset="45%" stop-color="#030e0a"/><stop offset="100%" stop-color="#020604"/></radialGradient>
  <radialGradient id="atm" cx="53%" cy="30%" r="36%"><stop offset="0%" stop-color="#60c090" stop-opacity="0.35"/><stop offset="100%" stop-color="#60c090" stop-opacity="0"/></radialGradient>
  <radialGradient id="vig" cx="50%" cy="42%" r="62%"><stop offset="40%" stop-color="transparent"/><stop offset="100%" stop-color="#020403" stop-opacity="0.55"/></radialGradient>
</defs>
<rect width="200" height="270" fill="url(#bg)"/>
<rect width="200" height="270" fill="url(#atm)"/>
<circle cx="107" cy="82" r="54" fill="none" stroke="#60c090" stroke-width="3" stroke-opacity="0.05"/>
<circle cx="107" cy="82" r="51" fill="none" stroke="#60c090" stroke-width="0.9" stroke-opacity="0.26"/>
<circle cx="107" cy="82" r="44" fill="none" stroke="#60c090" stroke-width="0.45" stroke-opacity="0.14"/>
<line x1="107" y1="33" x2="107" y2="27" stroke="#60c090" stroke-width="1.2" stroke-opacity="0.40"/>
<line x1="141" y1="48" x2="145" y2="44" stroke="#60c090" stroke-width="1.2" stroke-opacity="0.40"/>
<line x1="155" y1="82" x2="161" y2="82" stroke="#60c090" stroke-width="1.2" stroke-opacity="0.40"/>
<line x1="141" y1="116" x2="145" y2="120" stroke="#60c090" stroke-width="1.2" stroke-opacity="0.40"/>
<line x1="107" y1="131" x2="107" y2="137" stroke="#60c090" stroke-width="1.2" stroke-opacity="0.40"/>
<line x1="73" y1="116" x2="69" y2="120" stroke="#60c090" stroke-width="1.2" stroke-opacity="0.40"/>
<line x1="59" y1="82" x2="53" y2="82" stroke="#60c090" stroke-width="1.2" stroke-opacity="0.40"/>
<line x1="73" y1="48" x2="69" y2="44" stroke="#60c090" stroke-width="1.2" stroke-opacity="0.40"/>
<path d="M107 76 L111 82 L107 88 L103 82 Z" fill="none" stroke="#60c090" stroke-width="0.7" stroke-opacity="0.24"/>
<!-- back of skull (angular/ridged) -->
<path d="M104 36 C114 40 122 48 126 58 C130 68 130 80 126 90 C122 98 116 104 110 108 C116 102 118 92 118 80 C118 66 114 52 104 36 Z" fill="#03080a"/>
<!-- head (angular, draconic, with snout extending left) -->
<path d="M104 36 C90 36 78 40 70 52 C64 60 62 72 64 84 C66 92 70 100 76 108 C82 116 90 120 96 120 C102 120 108 118 112 112 C116 106 118 96 116 84 C114 70 112 54 104 36 Z" fill="#03080a"/>
<!-- snout extending left -->
<path d="M70 76 C60 82 54 92 52 104 C58 102 64 96 68 88 C70 84 72 80 74 76 Z" fill="#03080a"/>
<!-- scale texture hints -->
<path d="M78 56 C82 54 86 54 90 56" fill="none" stroke="#60c090" stroke-width="0.5" stroke-opacity="0.18"/>
<path d="M74 66 C78 64 84 64 88 66" fill="none" stroke="#60c090" stroke-width="0.5" stroke-opacity="0.18"/>
<path d="M72 76 C76 74 82 74 86 76" fill="none" stroke="#60c090" stroke-width="0.5" stroke-opacity="0.18"/>
<path d="M72 86 C76 84 82 84 86 86" fill="none" stroke="#60c090" stroke-width="0.5" stroke-opacity="0.15"/>
<!-- nostril -->
<path d="M58 98 C56 102 58 106 62 106 C64 104 62 100 58 98 Z" fill="#03080a"/>
<!-- slit eye -->
<path d="M82 64 C84 62 88 62 90 64 C88 66 84 66 82 64 Z" fill="none" stroke="#60c090" stroke-width="0.6" stroke-opacity="0.30"/>
<!-- neck -->
<path d="M86 120 C84 128 84 138 86 144 C88 148 92 150 98 150 C104 150 108 148 110 144 C112 138 112 128 110 120 C106 118 102 118 98 118 C94 118 90 118 86 120 Z" fill="#03080a"/>
<path d="M34 232 C32 196 46 170 70 156 C78 152 86 150 96 148 C106 150 118 154 128 160 C154 174 166 198 164 232 Z" fill="#03080a"/>
<path d="M32 256 L34 232 L164 232 L168 256 Z" fill="#03080a"/>
<path d="M64 60 C60 72 62 84 66 94 C70 104 76 112 82 118" fill="none" stroke="#60c090" stroke-width="0.8" stroke-opacity="0.20"/>
<path d="M34 232 C32 196 46 170 70 156" fill="none" stroke="#60c090" stroke-width="0.5" stroke-opacity="0.14"/>
<ellipse cx="100" cy="248" rx="88" ry="18" fill="#03080a" fill-opacity="0.70"/>
<rect x="7" y="7" width="186" height="256" fill="none" stroke="#60c090" stroke-width="2" stroke-opacity="0.07"/>
<rect x="9" y="9" width="182" height="252" fill="none" stroke="#60c090" stroke-width="1.1" stroke-opacity="0.38"/>
<rect x="13" y="13" width="174" height="244" fill="none" stroke="#60c090" stroke-width="0.4" stroke-opacity="0.15"/>
<path d="M9 9 L9 28 M9 9 L28 9" stroke="#60c090" stroke-width="2" stroke-opacity="0.68" fill="none" stroke-linecap="round"/>
<circle cx="9" cy="9" r="2.8" fill="#60c090" fill-opacity="0.40"/>
<path d="M191 9 L191 28 M191 9 L172 9" stroke="#60c090" stroke-width="2" stroke-opacity="0.68" fill="none" stroke-linecap="round"/>
<circle cx="191" cy="9" r="2.8" fill="#60c090" fill-opacity="0.40"/>
<path d="M9 261 L9 242 M9 261 L28 261" stroke="#60c090" stroke-width="2" stroke-opacity="0.68" fill="none" stroke-linecap="round"/>
<circle cx="9" cy="261" r="2.8" fill="#60c090" fill-opacity="0.40"/>
<path d="M191 261 L191 242 M191 261 L172 261" stroke="#60c090" stroke-width="2" stroke-opacity="0.68" fill="none" stroke-linecap="round"/>
<circle cx="191" cy="261" r="2.8" fill="#60c090" fill-opacity="0.40"/>
<path d="M100 7 L103 10 L100 13 L97 10 Z" fill="#60c090" fill-opacity="0.42"/>
<path d="M100 257 L103 260 L100 263 L97 260 Z" fill="#60c090" fill-opacity="0.42"/>
<path d="M7 135 L10 138 L7 141 L4 138 Z" fill="#60c090" fill-opacity="0.42"/>
<path d="M193 135 L196 138 L193 141 L190 138 Z" fill="#60c090" fill-opacity="0.42"/>
<rect width="200" height="270" fill="url(#vig)"/>
</svg>
